<mxfile host="Electron" modified="2024-03-10T20:32:17.694Z" agent="Mozilla/5.0 (Windows NT 10.0; Win64; x64) AppleWebKit/537.36 (KHTML, like Gecko) draw.io/23.1.5 Chrome/120.0.6099.109 Electron/28.1.0 Safari/537.36" etag="siUrKYulcpznz4fOUBxn" version="23.1.5" type="device">
  <diagram name="POC" id="YcDYxZ_eFuHpwHyPnVPT">
    <mxGraphModel dx="2922" dy="1212" grid="1" gridSize="10" guides="1" tooltips="1" connect="1" arrows="1" fold="1" page="1" pageScale="1" pageWidth="850" pageHeight="1100" math="0" shadow="0">
      <root>
        <mxCell id="iw_QuW8YLIXmFO169EUj-0" />
        <mxCell id="iw_QuW8YLIXmFO169EUj-1" parent="iw_QuW8YLIXmFO169EUj-0" />
        <mxCell id="USi9nZct47u42drml_Th-0" value="" style="whiteSpace=wrap;html=1;dashed=1;verticalAlign=middle;rounded=1;fillColor=none;strokeWidth=2;strokeColor=#3399FF;" parent="iw_QuW8YLIXmFO169EUj-1" vertex="1">
          <mxGeometry x="180" y="290" width="520" height="360" as="geometry" />
        </mxCell>
        <mxCell id="iw_QuW8YLIXmFO169EUj-5" value="" style="whiteSpace=wrap;html=1;verticalAlign=middle;rounded=1;fillColor=none;strokeColor=#9673a6;strokeWidth=2;" parent="iw_QuW8YLIXmFO169EUj-1" vertex="1">
          <mxGeometry x="190" y="330" width="480" height="300" as="geometry" />
        </mxCell>
        <mxCell id="iw_QuW8YLIXmFO169EUj-9" value="" style="whiteSpace=wrap;html=1;verticalAlign=middle;rounded=1;fillColor=none;strokeColor=#56517e;strokeWidth=2;" parent="iw_QuW8YLIXmFO169EUj-1" vertex="1">
          <mxGeometry x="240" y="370" width="420" height="170" as="geometry" />
        </mxCell>
        <mxCell id="iw_QuW8YLIXmFO169EUj-19" value="&lt;br&gt;&lt;span class=&quot;ng-scope&quot;&gt;&lt;/span&gt;&lt;br&gt;" style="whiteSpace=wrap;html=1;verticalAlign=middle;rounded=1;fillColor=none;strokeColor=#56517e;strokeWidth=2;" parent="iw_QuW8YLIXmFO169EUj-1" vertex="1">
          <mxGeometry x="240" y="550" width="420" height="60.73" as="geometry" />
        </mxCell>
        <mxCell id="W_wi-10m-ZWDM_btILN0-2" style="edgeStyle=orthogonalEdgeStyle;rounded=0;orthogonalLoop=1;jettySize=auto;html=1;" parent="iw_QuW8YLIXmFO169EUj-1" source="iw_QuW8YLIXmFO169EUj-27" target="iw_QuW8YLIXmFO169EUj-29" edge="1">
          <mxGeometry relative="1" as="geometry" />
        </mxCell>
        <mxCell id="W_wi-10m-ZWDM_btILN0-15" style="edgeStyle=orthogonalEdgeStyle;rounded=0;orthogonalLoop=1;jettySize=auto;html=1;startArrow=classic;startFill=1;" parent="iw_QuW8YLIXmFO169EUj-1" source="iw_QuW8YLIXmFO169EUj-27" target="W_wi-10m-ZWDM_btILN0-14" edge="1">
          <mxGeometry relative="1" as="geometry" />
        </mxCell>
        <mxCell id="iw_QuW8YLIXmFO169EUj-27" value="" style="whiteSpace=wrap;html=1;verticalAlign=middle;rounded=1;fillColor=none;strokeColor=#b85450;strokeWidth=2;" parent="iw_QuW8YLIXmFO169EUj-1" vertex="1">
          <mxGeometry x="258.31" y="389.53999999999996" width="142.32" height="100" as="geometry" />
        </mxCell>
        <mxCell id="iw_QuW8YLIXmFO169EUj-29" value="" style="whiteSpace=wrap;html=1;verticalAlign=middle;rounded=1;fillColor=none;strokeColor=#b85450;strokeWidth=2;" parent="iw_QuW8YLIXmFO169EUj-1" vertex="1">
          <mxGeometry x="500" y="386" width="142.32" height="100" as="geometry" />
        </mxCell>
        <mxCell id="iw_QuW8YLIXmFO169EUj-88" value="cyberspeedproject.com" style="edgeStyle=orthogonalEdgeStyle;rounded=0;orthogonalLoop=1;jettySize=auto;html=1;entryX=0.5;entryY=0;entryDx=0;entryDy=0;" parent="iw_QuW8YLIXmFO169EUj-1" source="iw_QuW8YLIXmFO169EUj-32" target="W_wi-10m-ZWDM_btILN0-0" edge="1">
          <mxGeometry relative="1" as="geometry">
            <mxPoint x="365" y="219.44000000000005" as="targetPoint" />
          </mxGeometry>
        </mxCell>
        <mxCell id="iw_QuW8YLIXmFO169EUj-32" value="User&lt;div&gt;&lt;br/&gt;&lt;/div&gt;" style="html=1;verticalLabelPosition=bottom;align=center;labelBackgroundColor=#ffffff;verticalAlign=top;strokeWidth=2;strokeColor=#0080F0;shadow=0;dashed=0;shape=mxgraph.ios7.icons.user;" parent="iw_QuW8YLIXmFO169EUj-1" vertex="1">
          <mxGeometry x="180.77" y="90" width="40" height="40" as="geometry" />
        </mxCell>
        <mxCell id="iw_QuW8YLIXmFO169EUj-38" value="Standard_D2as_v4" style="sketch=0;aspect=fixed;html=1;points=[];align=center;image;fontSize=10;image=img/lib/mscae/Kubernetes_Services.svg;verticalAlign=top;horizontal=1;" parent="iw_QuW8YLIXmFO169EUj-1" vertex="1">
          <mxGeometry x="545" y="487" width="40.55" height="30" as="geometry" />
        </mxCell>
        <mxCell id="iw_QuW8YLIXmFO169EUj-39" value="" style="sketch=0;html=1;dashed=0;whitespace=wrap;fillColor=#2875E2;strokeColor=#ffffff;points=[[0.005,0.63,0],[0.1,0.2,0],[0.9,0.2,0],[0.5,0,0],[0.995,0.63,0],[0.72,0.99,0],[0.5,1,0],[0.28,0.99,0]];shape=mxgraph.kubernetes.icon;prIcon=deploy;verticalAlign=middle;" parent="iw_QuW8YLIXmFO169EUj-1" vertex="1">
          <mxGeometry x="608.79" y="433.5" width="29.39" height="32.42" as="geometry" />
        </mxCell>
        <mxCell id="iw_QuW8YLIXmFO169EUj-40" style="edgeStyle=orthogonalEdgeStyle;rounded=0;orthogonalLoop=1;jettySize=auto;html=1;fontSize=10;startArrow=classic;startFill=1;" parent="iw_QuW8YLIXmFO169EUj-1" source="iw_QuW8YLIXmFO169EUj-41" edge="1">
          <mxGeometry relative="1" as="geometry">
            <mxPoint x="547.3" y="430" as="targetPoint" />
          </mxGeometry>
        </mxCell>
        <mxCell id="iw_QuW8YLIXmFO169EUj-41" value="" style="sketch=0;html=1;dashed=0;whitespace=wrap;fillColor=#2875E2;strokeColor=#ffffff;points=[[0.005,0.63,0],[0.1,0.2,0],[0.9,0.2,0],[0.5,0,0],[0.995,0.63,0],[0.72,0.99,0],[0.5,1,0],[0.28,0.99,0]];shape=mxgraph.kubernetes.icon;prIcon=svc" parent="iw_QuW8YLIXmFO169EUj-1" vertex="1">
          <mxGeometry x="582" y="392.01" width="38" height="30" as="geometry" />
        </mxCell>
        <mxCell id="iw_QuW8YLIXmFO169EUj-42" value="" style="group" parent="iw_QuW8YLIXmFO169EUj-1" vertex="1" connectable="0">
          <mxGeometry x="535" y="411" width="56.53" height="48" as="geometry" />
        </mxCell>
        <mxCell id="iw_QuW8YLIXmFO169EUj-44" value="" style="sketch=0;html=1;dashed=0;whitespace=wrap;fillColor=#2875E2;strokeColor=#ffffff;points=[[0.005,0.63,0],[0.1,0.2,0],[0.9,0.2,0],[0.5,0,0],[0.995,0.63,0],[0.72,0.99,0],[0.5,1,0],[0.28,0.99,0]];shape=mxgraph.kubernetes.icon;prIcon=pod" parent="iw_QuW8YLIXmFO169EUj-42" vertex="1">
          <mxGeometry y="16.551724137931036" width="26.53225806451614" height="31.448275862068964" as="geometry" />
        </mxCell>
        <mxCell id="iw_QuW8YLIXmFO169EUj-45" style="edgeStyle=orthogonalEdgeStyle;rounded=0;orthogonalLoop=1;jettySize=auto;html=1;" parent="iw_QuW8YLIXmFO169EUj-1" source="iw_QuW8YLIXmFO169EUj-39" edge="1">
          <mxGeometry relative="1" as="geometry">
            <mxPoint x="567" y="449.71000000000004" as="targetPoint" />
          </mxGeometry>
        </mxCell>
        <mxCell id="iw_QuW8YLIXmFO169EUj-48" style="edgeStyle=orthogonalEdgeStyle;rounded=0;orthogonalLoop=1;jettySize=auto;html=1;fontSize=11;startArrow=classic;startFill=1;" parent="iw_QuW8YLIXmFO169EUj-1" source="iw_QuW8YLIXmFO169EUj-49" target="iw_QuW8YLIXmFO169EUj-47" edge="1">
          <mxGeometry relative="1" as="geometry">
            <mxPoint x="305.29999999999995" y="431" as="targetPoint" />
          </mxGeometry>
        </mxCell>
        <mxCell id="iw_QuW8YLIXmFO169EUj-49" value="" style="sketch=0;html=1;dashed=0;whitespace=wrap;fillColor=#2875E2;strokeColor=#ffffff;points=[[0.005,0.63,0],[0.1,0.2,0],[0.9,0.2,0],[0.5,0,0],[0.995,0.63,0],[0.72,0.99,0],[0.5,1,0],[0.28,0.99,0]];shape=mxgraph.kubernetes.icon;prIcon=svc" parent="iw_QuW8YLIXmFO169EUj-1" vertex="1">
          <mxGeometry x="334.51" y="393.92" width="32.02" height="34" as="geometry" />
        </mxCell>
        <mxCell id="iw_QuW8YLIXmFO169EUj-55" value="aspnet" style="text;html=1;resizable=0;autosize=1;align=center;verticalAlign=middle;points=[];fillColor=none;strokeColor=none;rounded=0;dashed=1;" parent="iw_QuW8YLIXmFO169EUj-1" vertex="1">
          <mxGeometry x="260.77" y="385" width="60" height="30" as="geometry" />
        </mxCell>
        <mxCell id="iw_QuW8YLIXmFO169EUj-56" value="mysql" style="text;html=1;resizable=0;autosize=1;align=center;verticalAlign=middle;points=[];fillColor=none;strokeColor=none;rounded=0;dashed=1;" parent="iw_QuW8YLIXmFO169EUj-1" vertex="1">
          <mxGeometry x="495" y="385" width="50" height="30" as="geometry" />
        </mxCell>
        <mxCell id="iw_QuW8YLIXmFO169EUj-65" value="Inbound" style="text;html=1;resizable=0;autosize=1;align=center;verticalAlign=middle;points=[];fillColor=#d5e8d4;strokeColor=#82b366;rounded=0;shadow=0;sketch=0;fontSize=11;" parent="iw_QuW8YLIXmFO169EUj-1" vertex="1">
          <mxGeometry x="363.90999999999997" y="170" width="60" height="20" as="geometry" />
        </mxCell>
        <mxCell id="iw_QuW8YLIXmFO169EUj-66" value="" style="group" parent="iw_QuW8YLIXmFO169EUj-1" vertex="1" connectable="0">
          <mxGeometry x="291.74" y="431" width="56.53" height="48" as="geometry" />
        </mxCell>
        <mxCell id="iw_QuW8YLIXmFO169EUj-47" value="" style="sketch=0;html=1;dashed=0;whitespace=wrap;fillColor=#2875E2;strokeColor=#ffffff;points=[[0.005,0.63,0],[0.1,0.2,0],[0.9,0.2,0],[0.5,0,0],[0.995,0.63,0],[0.72,0.99,0],[0.5,1,0],[0.28,0.99,0]];shape=mxgraph.kubernetes.icon;prIcon=deploy;verticalAlign=middle;" parent="iw_QuW8YLIXmFO169EUj-66" vertex="1">
          <mxGeometry x="-19.670000000000073" y="6.889999999999986" width="30" height="27.54" as="geometry" />
        </mxCell>
        <mxCell id="iw_QuW8YLIXmFO169EUj-80" value="Pool1" style="text;html=1;resizable=0;autosize=1;align=center;verticalAlign=middle;points=[];fillColor=none;strokeColor=none;rounded=0;fontSize=10;" parent="iw_QuW8YLIXmFO169EUj-1" vertex="1">
          <mxGeometry x="592.3199999999999" y="493.57000000000005" width="50" height="30" as="geometry" />
        </mxCell>
        <mxCell id="Iwqp3JauGU6lIpdPwiO9-3" value="" style="endArrow=classic;html=1;exitX=0.5;exitY=1;exitDx=0;exitDy=0;entryX=0.5;entryY=0;entryDx=0;entryDy=0;entryPerimeter=0;fillColor=#d5e8d4;strokeColor=#82b366;" parent="iw_QuW8YLIXmFO169EUj-1" source="W_wi-10m-ZWDM_btILN0-0" target="iw_QuW8YLIXmFO169EUj-49" edge="1">
          <mxGeometry width="50" height="50" relative="1" as="geometry">
            <mxPoint x="447.95000000000005" y="274.44000000000005" as="sourcePoint" />
            <mxPoint x="560" y="300" as="targetPoint" />
            <Array as="points">
              <mxPoint x="351" y="274" />
            </Array>
          </mxGeometry>
        </mxCell>
        <mxCell id="2BYpRLXcpuILKDdfjKjO-0" value="VNet" style="aspect=fixed;html=1;points=[];align=center;image;fontSize=12;image=img/lib/azure2/networking/Virtual_Networks.svg;dashed=1;" parent="iw_QuW8YLIXmFO169EUj-1" vertex="1">
          <mxGeometry x="653" y="299.44" width="47" height="28.06" as="geometry" />
        </mxCell>
        <mxCell id="-5QSWMxSr1nSLUhUwOBq-0" value="AKS Internal Management" style="text;html=1;resizable=0;autosize=1;align=center;verticalAlign=middle;points=[];fillColor=none;strokeColor=none;rounded=0;fontSize=11;" parent="iw_QuW8YLIXmFO169EUj-1" vertex="1">
          <mxGeometry x="250" y="550" width="140" height="20" as="geometry" />
        </mxCell>
        <mxCell id="-5QSWMxSr1nSLUhUwOBq-1" value="default" style="text;html=1;resizable=0;autosize=1;align=center;verticalAlign=middle;points=[];fillColor=none;strokeColor=none;rounded=0;fontSize=10;" parent="iw_QuW8YLIXmFO169EUj-1" vertex="1">
          <mxGeometry x="588.1800000000001" y="550" width="50" height="30" as="geometry" />
        </mxCell>
        <mxCell id="-5QSWMxSr1nSLUhUwOBq-2" value="Standard DS2 v2" style="sketch=0;aspect=fixed;html=1;points=[];align=center;image;fontSize=10;image=img/lib/mscae/Kubernetes_Services.svg;verticalAlign=top;horizontal=1;" parent="iw_QuW8YLIXmFO169EUj-1" vertex="1">
          <mxGeometry x="434.72" y="550" width="40.55" height="30" as="geometry" />
        </mxCell>
        <mxCell id="HmUW0-2yT1t4pbH3hgz2-0" value="Standard_D2as_v4" style="sketch=0;aspect=fixed;html=1;points=[];align=center;image;fontSize=10;image=img/lib/mscae/Kubernetes_Services.svg;verticalAlign=top;horizontal=1;" parent="iw_QuW8YLIXmFO169EUj-1" vertex="1">
          <mxGeometry x="299.45000000000005" y="489.54" width="40.55" height="30" as="geometry" />
        </mxCell>
        <mxCell id="5wsJ_R96Tv99NH2uBYai-0" value="" style="whiteSpace=wrap;html=1;verticalAlign=middle;rounded=1;fillColor=none;strokeColor=#666666;strokeWidth=2;fontColor=#333333;" parent="iw_QuW8YLIXmFO169EUj-1" vertex="1">
          <mxGeometry x="720" y="455.29" width="142.32" height="100" as="geometry" />
        </mxCell>
        <mxCell id="5wsJ_R96Tv99NH2uBYai-1" value="Azure AD" style="aspect=fixed;html=1;points=[];align=center;image;fontSize=10;image=img/lib/azure2/identity/Azure_Active_Directory.svg;" parent="iw_QuW8YLIXmFO169EUj-1" vertex="1">
          <mxGeometry x="765" y="487" width="40" height="36.57" as="geometry" />
        </mxCell>
        <mxCell id="5wsJ_R96Tv99NH2uBYai-2" value="Identity" style="text;html=1;resizable=0;autosize=1;align=center;verticalAlign=middle;points=[];fillColor=#f5f5f5;strokeColor=#666666;rounded=0;shadow=0;sketch=0;fontSize=10;fontColor=#333333;" parent="iw_QuW8YLIXmFO169EUj-1" vertex="1">
          <mxGeometry x="759.9999999999999" y="455.29" width="50" height="20" as="geometry" />
        </mxCell>
        <mxCell id="8pWMxG_N5i2wWPU1tPxP-0" value="" style="endArrow=classic;html=1;fontSize=9;fontColor=#333333;strokeWidth=1;fillColor=#f8cecc;strokeColor=#b85450;entryX=0;entryY=0;entryDx=0;entryDy=0;exitX=1.002;exitY=0.321;exitDx=0;exitDy=0;exitPerimeter=0;" parent="iw_QuW8YLIXmFO169EUj-1" source="iw_QuW8YLIXmFO169EUj-5" target="5wsJ_R96Tv99NH2uBYai-0" edge="1">
          <mxGeometry width="50" height="50" relative="1" as="geometry">
            <mxPoint x="680" y="440" as="sourcePoint" />
            <mxPoint x="718.1423199999999" y="439.95000000000005" as="targetPoint" />
          </mxGeometry>
        </mxCell>
        <mxCell id="W_wi-10m-ZWDM_btILN0-0" value="" style="shape=image;verticalLabelPosition=bottom;labelBackgroundColor=default;verticalAlign=top;aspect=fixed;imageAspect=0;image=data:image/png,iVBORw0KGgoAAAANSUhEUgAAAbwAAAIACAYAAAD5UNlMAAAABGdBTUEAALGPC/xhBQAAACBjSFJNAAB6JgAAgIQAAPoAAACA6AAAdTAAAOpgAAA6mAAAF3CculE8AAAAB3RJTUUH5QEbFzYEpz05JgAAAAZiS0dEAAAAAAAA+UO7fwAAO+1JREFUeNrtnXm0pFV1t+v27aYnoBkFGeTtvu/egEhSDHVrbwPBOMQpGnGME84xEoc4fvqpMSJREyVFd51flXNiojjFAQUn4oDGCY2IEwgqCKKMMoPN1N8ft+BTAtINt/ve+9bzW+v5pxdL16pz3vPcc84+57RahJAtkjWDWGol/8iUa035WSvxKCvdnfhlCCGENCJVrz3pitWmfIErT3flhhHXueJfXXFo3Y+t+aUIIYQs2HiJnazEEa78uCuv/x3Z3cLNrjzLSh5dKw6ohrGYX40QQsiCSd2Pybofh3mJ97jy/JHYNvwBrnXlKa54/tS6g7bjFySEEDLvUw1jJ1Mc5cpfunL9nYjutlxmJU/2En/CL0kIIWTexQc5aaW7hyuOtJI/2YgZ3Z1xtSnfZyWjHuTKahj8yIQQQuY2pukdTHG4K48fLU1umEXONuVrXbFf1Wuzv0cIIWTLp+q1l5jiUFcMXPnrWRbd77Lelf/limd7id355QkhhGyxuGLKSh7lylNdeeNmlN3vVnNe6MoPWYlH1P1YQSsQQgjZfKIb5BIf5NNc8R1XXj0Le3WbyvWu/LUp3rFm3cE70yKEEEJmLVWvPWEltq0HGVbiy3MgudvFSl7oile4Yjcf5BJaihBCyF2OqbvcStzXSh7jykvmg+huZ3/vZFc+1Up3d1NnglYjhBCySan7scYVr3Pl97bQPt3d4RJXfMBKPrjqtbei9QghhNxpqmFs7conu/Kkmfsu57XobsvpVuKtpu69aUlCCCG3L7pee9JK90BXftCVF82Xvbq7wLWu/L6VOLLuxza0LCGEkFar1WrV/VhqSvOSxZXXLGDR/a+jDFbih7XyIa5YVfXa7O8RQshYzuiGsbhWrLGSR5ryjIZI7va4zhV9K3GYF54hIoSQ8RFdrz1R96d3NuWTbebZnisbLLtbuGn0Ft9RVrJd92MRPYEQQhoeL3GYK45z5bkjEWwYI65x5bdc+aJqGKvoDYQQ0sCYOvewEn/vyp+58oYxE91t+Y2V/ISV7p9VvTaH1gkhZMHP5hQTVrq7W4lnufLMBhWkzNb9nFe44r1e4kDu5ySEkIUqu0Hu6IqHuvLzd+Eh1nHj51byNabYu+q1J+k9hBCyAFINY6u6xJ+4cp0rL0BmG38xtSk/ayWe4Yp70pMIIWS+iq7Xnqj73XuZ8nWuPI1Z3d15hig+4oN8mA+SR2cJIWS+xdR9opU81ZVXIa67zY2uPN9KyNTZk95FCCFzOaMbxoQpt7GSh7niC6O34pDV7M/4zrOSL5qZPXeZ8RFCyJbMmrUHLTVF15T/4spfI6Ytsr/3JVc8qe4HD88SQsiWiJdYYyVe6crvIKItzpWufKeVeEg1jOX0RkII2Qyp+7G9KY9w5YmjG0MQ0NxdU/YTV77ZSnfvqtfmmjJCCJmNVMNYNDWIA03xfldePIbXgc3ba8qs5A+8xPO8BLe1EELI3Vi6XFb3p80Vb7GSV3BLyvyd8Znym1bioabcrhpyMTUhhGxUTJ1JK93VXuL5rjiNGd2C4XJXvtsU96v709tUvTadmRBC7ihr1h200hRPccXxowEUkSw8TnfF0V5if3o0IYTc3hKm4hAr+U5Xno80FjzXuvJkK/Gcuh+70LsJIaTVavkgd3PFUaPKPw6PN+vQ+iWu/FSteEA1jK3o7YSQsUvVay+ykjvXiqeOnu1hn67B4jPlVa54nytqH+QyvgBCyFjE1N2xLvFgK/mfyGDciHNc+RIrsY+pw4yPENLM1P1YaiUOcUXflb/kmME47+/Ff5niuXV/eheqOQkhjcqaQezqytePnu1hnw42uPIiK/lRU/dBfCGEkAWfqtde6opHuvIUnu2BO7im7BxXrK37wTNEhJAFt3Q5UZfYxpWHWclPu/I6BnbYCPGda4qX1Mo916w9aJIviRAyv2d0w1hqigNMuXZ07yWDOWwqX7V+PMYLzxARQubn0uWkla5ZyRe68hsM2nA3ucyVA1M+sO7H1nxhhJB5ES+xjZd4mis+7crfUH0Js/Xo7Mw1ZXlMPch9q2FM8LURQuYspul9rcSHXHmhK29kkIbN8QzRzOUE8cyq1+bRWULIFpzRKZbW/e5qU7xxdMEzMzrYEvzWFV/yEg+3EqvqPs8QEUI2l+gGOeGDXOOKI0fn6ZjRwVxwsZV4lynut3oYK/kyCSGzmmoYK63E41z5qdESEwMvzPkzRFbyta7Yjy+UEHL3RddrL7YSXVMOXHkugyzMw/29L7riOT7InfhiCSF3KabujlbiKCt5hivXM7jCPD60fokpPmWle5ipw94eIWSjli4XuXIHK/EEV5zHPh0ssPf31pvi3XV/2kxdniEihNzu0uWEle4OpnywKz8yUxHHIAoL9P29kme64qVWwup+LOYLJ4S0Wq1Wy0ssshKHWom1Mxf5MmhCI7jOlZ+zEs9dPYjt+dIJGfPU/djTlK925fdceQODJDSQS115nJV8QNVr8+gsIWO3hDmMFbXicFd+yZVXMihCw7nRlT+zksd44RkiQsZl+XJrK93DXPnx0ft03JIC4ya+n1vJv3PlrtUweIaIkKbF1FlmJe7jije74lIGPoD8gikPt9Ldpeq1OcpAyIJfuuy1F9WlW7ni71zxDfbpAH7/mjJXvM1L/LmX4GJqQhbs8qVisSuebiVPGL0vxgAHcPvPEP3YSry57sfejByELDTZDXJ/VxznyotGN1EwsAHc+TVl3zXFM6phbMsoQsj8Xbps1f3pJbVyjSne4MoLEB3AXeJaK/lFV/y5D3JbHyQDDCHzKabuXlbiOa78LgMWwKxwhSvfbiWmTZ0VjDKEzHHqfmznisNdwXVgAJuHH7ri1abuflWvzTEGQrb4EuYwFpty2v//sz2cpwPYjPt7pvyilfhrU5f9PUK2VNasPXCVK17typ+O7gtkQALYMs8QXeyKk+p+HMBIRMjmW7qcNOX2XuLxVvInnKcDmNNniC63Em+rB7lP3Y9lVa/NIEXILCxdtupB7uDKvzDlx0al0ww6APODM63Ey6zE3l5ighGLkLsqu157iSumTXmsK3/J4AIwbw+uf9aUT6z7sTMjFyGbGC9RueKVrvzm6INiYAGY3/zale815QOrYSxlFCPkzvfqVliJv3LlF1x5OdWXAAtutneOK99a9zt7sbdHyO3N6BQr6353P1OcMDpPh+gAFi43WMmLvcRzrcQOdT8WM8oRRDfIZa7Y3xVvtJIXMVAANIr1VuLTVuJx9SB2qYbBM0Rk/GLqTFjpTrnyxa78Fvt0AM3e3zPlO0zx4DVrD1zGCEjGJlWvvdRKHu7Kk0b7dAwIAGOwzOnK013xRh/kFCMhGYOZXfePreS/ufI8BgCAseRqV37NSveZpg7XlJFmZfUgFluJKStxtCsvdOWNfPQAY39by3pXnlyX7v1dvL9HFv7S5SJX7G7KJ1uJM/nIAeC2WMlrXfF2VxxY94NniMjCi5fYzko82pXvc+W1fNgAcCcXU//ASr6yVuxbDYNniMj8T92PibpEmvJtrjzbeXUcADZtf+/LVvJvVh974EpGVDJ/lzCHsb0rXzN6tofHWAHgrnKxlfykqXsoIyuZT0uXi6w/vbMrnmQlv4XoAGAWlzkvMuU6K7nf1CCXVsNg0CVztny5vZV4sCs+OlqK4CMFgM3zDJHypa5YXfXa7O+RLVp9udgUB5vyGM7TAcAW5Hgr8VQvcQ9GYrL5lzAVe1iJl7vy61wHBgBzcH7vAle+20o8oO4H15SRzSC6QS7yQT7WFSfzbA8AzDG/deXZpjhm9TB2ZYQms7F0OWEllpu6B1uJj7ryOkQHAPPsGaKfuOJ5dX96Vx8k+3tk02PqbmWl27aS/+DKX/FhAcA8n/F9xpWPMk3vbOowiJONrr7czRUvduU3Rzec80EBwELgAle80xSHVb32EkZzcsdLmMNYYSWe4MqPuvIaPh4AWKCcZiVf74p9GdnJbffqFlnp7ufKd4yWL7kODAAWejXn1a78lpU4ou7HckZ6li6XmPIeXuIoK3kxy5cA0EDxXWclvj41iIOt5Mqq155g9B+vpctJU+5pJZ9myu/yUQDAGHCVlTy2Lt2uqcvF1GOwdNmq+53tTPEoU37IlVfwEQDAGHGjK39oylfVJfap+8Fsr6nxEgfNPLSYP3VeHQeAMZ7tufKLrnxaNYxtsEPDjhmMrgM7zZXr6ewAALccY8iPWOlm1WsvxhYLdTanaFnp7mCle7grvz0SHbekAAD8Pje58lIvKS9R1/3YCoMsJNkNcpUr0pXHj64Do1MDANwJVuInVvJvTVFVw2DGN59j6iy10u248o2uPJcODACwyVxnyk+Y8klWpnflGMM8rL6cWje9qylf7spTmNUBANztZc7zXPEfrvgzHyTSmz8zu+7DreRXXfkbOioAwKxxvSt/ZiWONnXuiW3m5uD4RK1YbiUOdMWHR+fpKEgBANh84jvdSjy77nd3dsUiTLQFsvrYAxabYn9THj0qqaUzAgBsGdbPnN+LR9b9WIWRNu/B8T2sxHNd+d90PACAOeNyK/kWK3FoNYyl2Gl2D45vY8rHuPLDrryczgYAMOfc4MrTTPm6ut+tq16bZc67uVfXmhrkfVz5Xlf+0nnNAABgvnGllfyWKZ5r6lLNeReWLpfU/c7urniFlfw1ogMAmNfcPDq/d4KV+BNTrqiGXEx9Z0uXk1ZiTy/xNFd8C9EBACw4LnHlWlN06n5nedVrI7fbqb5caopHu/IjrryUTgMAsKA51Uq81ktMYbjfXcJUHGQl3+LKs+kkAACNOr93oimfXvdjp/EW3SB3dsXLXXkq14EBADT2mrILXXlcPYj7jtWl1FWvPWEltzZ1H2clvuPK33JLCgBA47nRSl7oin7d71ReGv4Mkam7qu53D7GS76HxAQDGlfiJl3iBlW5l6jRrxlf3Y4mVOMgVbzLlz5nRAQCMPVe54pOmePJUv7NDI6o5q2FsbyVe68pvjO5ho6EBAOAWzreS/+aK+y3kvbqtXPEgV37OlVfSqAAAcEf7e648wxVv9EHutVCWLlt1iWVe4o+t5Pt85n26m2hMAADYCNa78ke14mm1cseqd8DEfF263MqV+1jh2R4AALjbfL7uxwNM3R3n09LlIivdvUz5TFd+lUYCAIDZwJQXuaLvikPrfiyf60ueV3iJx7riI6ODhVRfAgDAbHKDK7/vyn+YGuTqahhzsl+3r5V4tyvPcy55BgCAzcuVrjzVFY+peu1lW+LOy8VTg7iXKV7pynMRHQAAbGGusJKf8RKHWMkVdX+WnyHyQbZ8kLu74smuPAXRAQDAHHOpKWWKTjWMpbN0HVhnWyvxYFd+cOZkPD80AADMG06rlS9whVe99uRdrb6ctNI92BXHuvIsflQAAJivy5yuONEVz/ASO27irK67rZV4uSm/5zzbAwAA858bXflrK/FB0/S0qfMHD45PWImtrcT9XfHjkeg4ZgAAAAtNfJeb4o1T66Z3c8WS33ufru53V5nyT03xAWZ0AADQAG6ykqe74vmuqHyQk60pxZ5W8s0+82wPPxIAADSJa115opV4Sqsu8ViOGQAAQMO5sGUlns4PAQAATQfhNZObfeaZjatdeZkrL3blj0zxeVN82hQfdsU/WImeKT42+rdPm+IkV/7ElZe68nJXXjPa072R3xQWMDeMvoXfuPJ8U3xt1N8/7op/uAVTfHj07ye74pej//4qV17Pb4jwYP5J7teu/J6XPNFKvLEu+YS6392n6rWXbuJlA7vV/TjAFc8y5f81xftc+bXReczLnDcOYWFI7nxXftsU73LFU+t+1zf2W6h67SVT67pTdclHmKK48huu/IUrf8tvi/Bg7rjald925Xtc+VQr3b2rXnvxbN+jaursVJc8zJUvMsXbXHmCK89GfjAP+eHoyqkn1GV696rXXnT3+39s58pHuvKtrvwK4kN4sMVFF59wxQtMMb1m3cErt9RLGabOMlN3Ly/xMFO+xpSfH4mXdoG55PuueIOVOKwaxorN9ND1Mlfsb4qXu/KbLHciPNjMWIkv1Mq/tBL3MnW2mss3EVcPYpmVnHLFw0z5VlOcw4UFsIW50hTvMMV03Z9eUfXam73fT607eKkp2qY4ZrTnTTsgPJjlPYkzrcSLrMTO1TAWteZRTJ1Fplg+1e/s4YrXmOL80bIP8oPNdqOGKX5kikfWipXVcJafibnz2d5ErVjug/xTU3yd410ID2aHy1z5Plfcp7UAMnN7z/ReXvK1rvyqzzzcSDvCbHKVlzjeNL33PPmDb08v8f7Rt0r7IDy4i5zvJV5m6uzQWoAxRWWKV7vyDNoSZonfuLJvpXuvLbF8ufHLnJ2drMRRrryINkJ4sOmcYYojql57SWsBp+q1l7jywV7yOIpb4G5yuZU4xkrsNi//wCuxk5V4/ejsK+2F8GAj+YmVeIyVWNCyuyV1PyasH3t4iee58ke0L9wFrrMSx1qJXeb1qkaJHa3EG1x5BW2G8ODOD5D/2Eo8ykosbjUoVa/dstJdYurua4oTRrfB0OawUd+FKT5kJVYuhL5uJZabYkAhC8KDP8xZVuIvWw1P1Wsv9xIDSrpho47iKE6dWnfwzgusj68YVW/ShggPbodrvHSfV/XaW7XGIGvWHrStlXiFK39K28Mf4GxXPMDUWbTQ+riVuK/PXMlHOyI8uM1fse9e6AUqm7y3V3KlKY9w5en0Abi9fTsv8QYr3W0XZJVy6S7zEi/1mYvYaU+EByN+7Mr9WmMYU6wwxV/N/CVPX4Df4wvWj/tUvfbEQuzbVa894Qp35Ym0JcKD0SFaK90nTa3rLG6NaUyxxBSPdOWv6A8w4lJTPL/ux6KF3Ld9kItM8RSfec2EdkV4416VGR9xxb1apGWKh48OFtM3xpubXHlS3Y/dG3IsZxdXfsh5WxLhjTkXm+KZVa89ie5aLSuxlZV4tSsvoG+MNVeb4kUN+2PuGdzCgvDGnS/WSkN1vye97bzE0T7z2jR9ZDwLuH5Rl27drAKtbmWKU2lfhDe2e3eufF01jMVo7jbS63d385L/xuH0MRVeieOatupR9dqTVmIty5oIb2zPF5niMPR2+9VtpunaFJ9jgBjLGd7TmtivfZAP4I84hDeufLMaxir09gcHiP1dyTLQeHHt1LrOrg39Q24FtwshvHHkRi+xFqVtzN5H/rkrz6XPjAklvuML5M7Mu/RHXInP0c4Ib9y4vi75bHS2UUUsi63E37jyQvrNOBAfcMWyxgpPuY42Rnjjxvq6H4eis42ucFtlJf7elZfTdxpfsPLKpjyLdQd/wD2HdkZ4Y3dH4OpjD9oOlW303kfLyvQ9TfEuV/6W/tNo4R1Z95tbuWwlHks7I7yx25hHY3dhptePPVz5UeedsSYvaT5+Ib6MsPHC696HNkZ4CI9s3IChuLcrv0MfaizZ6Mpj5WraGOEhPLIpy0IPdeUv6UcID+EBwkN4TS9iWWyl+2zuJkR4CA8QHsIbhyKW7UzxeldeTX9CeAgPEB7Ca3oRy06uXOu8KI3wEB4gPIQ3BkUsq135cSo3ER7CA4SH8MahiOVg7txEeAgPEB7CGxPpdR/oJc6nbyE8hAcID+E1OmvK9JJa8RRTcP0YwkN4gPAQXtP38zrLXfFC7txEeAgPEB7CG4cill185kZ6jisgPIQHCA/hNV16WbvyP6ncRHgIDxAewhuHIpb7eInv0dcQHsIDhIfwGp2q156YUtzXFJfS3xAewgOEh/CaXsQy6YpHcecmwkN4gPAQ3jgUsWzryle5kpkewkN4CI8fAuE1vohlN1cWKjcRHsJDePwYCG8cilimvMSnXHkj/Q/hITyEBwiv0UUs9brOHqY43ZU30wcRHsJDeIDwGr68Of1HpvgpfRDhITyEBwiv6UUsi11xhCvPpR8iPISH8ADhtZo96MS2rniZKy+kLyI8hIfwAOE1OnV/ehcvMXTltfRHhIfwEB4gvKYXsdzDFJ+mchPhITyEBwhvDPb0OnuY4r/pkwgP4SE8QHjjUMjyZ648k36J8BAewgOE1/QilsWueKorz6FvIjyEh/AA4TW9iGVbK/EaV15B/0R4CA/hAcJrchFLq17X2d5L/osrr6GPIjyEh/AA4TW9iOUepvgP57V0hIfwEB4gvMbv6Q3SXPkl+inCQ3gIDxBe8/f0St7XlWfQVxEewkN4gPCavbRZYtJLPNGVF9NfER7CQ3iA8Jo9y1vXWe4lXuzKy+mzCA/hITxAeE0vYtnOFG9y5VX0W4SH8BAeILymF7Hs6cr/cOX19F2Eh/AQHiC8phexuCu/Qt9FeAgP4QHCG4dClnDlr+i/CA/hITxAeE0vYpm0fjyWyk2Eh/AQHiC8cShiWW7qHum8lo7wEB7CA4TX+JleP7Z35VEcV0B4CA/hAcIbg5le7EblJsJDeAgPEN64FLFMmeKb9GeEh/AQHiC8MVjenG57iZ/SpxEewkN4gPCaXsQyaer+pSl+Qb9GeAgP4QHCa3oRywpTPo8zeggP4SE8QHjjUMSygyv/yZVX0r8RHsJDeIDwml7EsocpPuy8lo7wEB7CA4TX9Ez1O3t6ia/TxxEewkN4gPDGYHlz+gBT/IR+jvAQHsIDhNf0IpZJK/mXrvwZfR3hITyEh/BI04tYVpry+VRuIjyEh/AQHhkD6eUOrnyTK6+gzyM8hIfwEB5p+PLm9D28xHFUbiI8hIfwEF4zl/MWW+luU/XaEyiv1aqGsaMpvky/R3gID+EhvOYJb1dTPKsu4ejult9k+t6u/CF9H+HRxggP4TXqo449XfkhUw5MsQu6G816lY+hchPh0cYID+E1T3ifdOVlpnxFXXIZymu1TLnSlS9w5QV8AwgPEB7Ca5bwNrjych/k400d9vNmili28xL/7Mqr+A4QHiA8hNcs4W2wkhdZ6d6/6rUXobxWqxrGKlP8K5WbCA8QHsJrmPBcebOVPK0uMV312pMor9UydXZx5Rf4FhAeIDyE1yzhbXDl9aY83kp3H3R3ayFL15U/4HtAeIDwEF6zhLdhtG8lV+yK7lotUy425eGu5KJphAcID+E1THgbXHmNK19nihUor9WaWtdZbiVe4MpL+C4QHiA8hNcs4W2wktdaiadXw1iC8lqtqtdeYorXuvJyvg2EBwgP4TVIeCPpXVorH0YRy61FLDuYYuDK6xEewgOEh/AaJDxX3uzKU1xxCLq7tYhlypWfQXgIDxAewmuW8Da4cr0rP2nK/dDdrb/dga78LsJDeIDwEF6zhHeL9N5uil3rflDEsq4zaf3u4a48H+EhPEB4CK9ZwrtlT++tVro7MMdrtapee9LUfaorLhgt/SI8hAcID+E1RXiuvM4UL6567cUor9UydbYxxWtceRnCQ3iA8BBes4S3wZXnWek+Gt3dWsSyuyvfMWaVmwgPEB7CGwvh3ezK75ri/uju1t9yL1d8FuEhPEB4CK9Zwtvgyhtd+SlTuA8S47VaLSuxt5c4G+EhPEB4CK9ZwruFj5qi5h29VqvqtSes3/2T0Z2bNyM8hAcID+E1S3jrXbGu7ne2Y47Xapk6y0zxdFeei/AQHiA8hNcs4W1w5dWmeCW6G/2ug9zOlK925aUID+EBwkN4zRLeBldeaIrHoLuZ1CV3thJvb3DlJsIDhIfwxlZ4N7vy+654gCkmUF6rZSV29BKnIDyEBwgP4TVLeLdwiinua+osQnmtVr2us4eX/J4rb0J4CA8QHsJrlvBusJIfqUt3quq1x36mZ+pMmroPduXpCA/hAcJDeM0S3oz0lJrqd7hzc6aIZYUrn+3KXyA8hAcID+E1S3i3VG6+At3dWsSyykq8rkF3biI8QHgID+H9DheZ8giKWG4tYlnlJT44uqUG4SE8QHgIr0HC2+DKX5jikaYOryu0Wq2q117hJT7WgCIWhAcID+EhvNvh67WiWw1jEuW1Wqbp/UzxDYSH8ADhIbzmCe9GU36iLl2ncrPVqvsxaSUe6MrTEB7CA4SH8JolvA2uvNZK/LuV2IY5XqtlimWmeJYrz0d4CA8QHsJrlvA2uPK3pnizKTDeTBHLSlMc5corER7CA4SH8JolvJmZnuIZdT+WorxWq+q1l3mJt7ryOoSH8ADhIbxmCW+DK8+xEo8ydZBeq9UydXY1xfEID+EBwkN4zRPeTab8hikOqXpt7tycWd7cz5X/jfAQHsJDeAivWcLb4Mr1pvycKR3dtVqmmDTFQ115FsJDeAiPHwLhNUt4ozs3430mKjdHs7ylpniOKy9EeAgP4QHCa5bwNrhyg5V8iw9yBcprtapeeysv8SJXXozwEB7CA4TXMOG58jpTHmnqIL1Wq1UNYxtTvMWV6xEewkN4gPCaJbybreTZVuKJVa/N9WOtVsvU2cGV/4nwEB7CA4TXLOHNSE95al3igUjv1kKW+7jymwgP4SE8QHjNEt4td25+xhQ1umu1TLnIlQ9w5U8QHsJDeIDwmiW8WzjeFXugvFar6rUXW+k+1pVnu/JmhIfwEB4gvGYJb4Mp15o6W6O8VqsaxnJTvMSVlyA8hIfwAOE1THiuvNxKvLgaxnKU12qZOtu68q3zqHIT4QHCQ3gIbxb5Ra18atVrL0F5rZYp7jmP2gvhAcJDeAhvNu/cdOWprjwM3d1ayLL36DdBeAgP4QHCa5DwbuFbppw2xdi/ll712hPW76aX+P4cF7EgPEB4CA/hbSY+Yeruzhyv1ap67UlT99Gm+NkcSg/hAcJDeAhv8925GceaOjugvFbL1FlhmtM7NxEeIDyEh/A2I1eZ4v9UvfZWKK/VMsWOPnd3biI8QHgID+FtzuvHXHmulXgauru1Dbe3Eh9DeAgP4QHCa5bwbuFnpniMKRajvFarXte5l5f4+hbez0N4gPAQHsLbQpzsyvv6IBdRxNKeqEu3a4rTRkc5EB7CQ3iA8BokvA2u/Iypu4Y5Xqtl6mxliie48mcID+EhPEB4zRPeDa74t6rXXobyWi1TbOuKl22hOzcRHiA8hIfwtjBXm/IN6O7WNt3WShzjyusRHsJDeIDwmiW8Da682BQvqEsuRXmt1upjD1jpJT6+mffzEB4gPISH8OaI0035OFOwvNlqtab6nd1N8TVX3ojwEB7CA4TXLOFtcOV3THGIqTP2lZumziJT91BXnoLwEB7CA4TXPOHdaCVPnlo3vStzvFbLB7nUlI935ZkID+EhPEB4zRLeBlfeZMoPVr32CpTXatUll1uJl7ryUoSH8BAeILzmtdtvTfEmU26D8lotKzHhJf7ZldciPISH8ADhNY9LTfkKUyC9VqtV9drLvORxs1jEgvAA4SE8hDef7tx0xRNMHV5XaLVapmlz5UkID+EhPEB4zeTUWnFINYyxr9z0QU6a8n6u/DbCQ3gIDxBe87jJlF+d6nd2Y47XatUlt7IST3TlOQgP4SE8QHjN42ZXftIUvJb+/4tYXujKixAewkN4gPCax/WmGCC9W4tYlnqJo+9G5SbCA4SH8BDefL5z05UvqftUbs4UsXR2NMV7EB7CQ3iA8JrJ2VbiqaYOd27OLG9OufIEhIfwEB4gvAbu55nytLp0u1WvPcEsLxZZiUNd+UOEh/AQHsJDeM2U3s9M4czxZopYTPFwV56xCU8KITxAeAgP4S0UTPnpuiTHFWaKWJZ46T7blecjPISH8BAewmse60251gd5D5TXapk6q0zx965cj/AQHsJDeAiviXdulnylqUPlZqvVqvuxgyvfhfAQHsJDeAivmYfSz7XSfULVa0+ivFbLFGtc+Q2ExxiI8BAewmsmv6xLPGqq3xl76VmJlikOcMV3/sDrCggPEB7CQ3gLmP9xxQHM8VqtqteetNL9C1f8eDQLRniA8BAewmsYnzbFGpTXapk6K03xPFdeiPAA4SE8hNfEys2SMnW4c3OmiGVbV77mdio3ER4gPISH8BrA5Vby9dUwVqK8VssU25ryAwgPEB7CQ3jN5BJTvKDuTy9Hea2WK3dy5YmuvAHhAcJDeAivgRdNu/IxplxMEUt7wvrdg1zxtdH1YwgPEB7CQ3gN4wemmGaO12pVw1hSK/7ClT9GeIDwEB7Cayb/ZersgvJaLVNnmSue7co1CA8QHsJDeM3jeiv5XlOHOzdnilhWmmIxwgOEh/AQXjO5ypT/PLWusx3KG4siHYSH8BAewhv7ys2XmmJrlIDwAOEhPITXdH5hisc2fUkP4SE8hIfwEB7MVG6WOBAtIDxAeAgP4TUeK/kVU2dP1IDwAOEhPITXdG50xSem+tO7ogeEBwgP4SG8xvcPUxZT7IQiEB4gPISH8JrOhaZ8aV1yGzSB8ADhITyE13TOMeXTTLEEVSA8QHgID+E1vYjlZ6bpNqpAeIDwEB7CGwfpnTXVn96r6rUnUAbCA4SH8BBeoys3TXlCXabXoAyEBwgP4SG8pnOlK3qu4LgCwgOEh/AQXuO52JWvMsUq1IHwAOEhPITX+IumXfEYU2cSfSA8QHgID+E1vYjlsinln1a99iIUgvAA4SE8hNds6SlPs9L9YxSC8ADhITyE13RucOUnTHFvNILwAOEhPITX+H7kyreZ4p6oBOEBwkN4CK/pXGHKV9V9XktHeIDwEB7CG4MzeqY4su53lqIUhAcID+EhvKZzfl26D0EpCA8QHsJDeOPAaaaYRisIDxAewkN4jb9z05Un1CX3QS0IDxAewkN4Tec6V77LB7kbekF4gPAQHsJrfP+yEm+yMr1D1eMpPYQHCA/hIbzGH1eIF9aF19IRHiA8hIfwxuB1BVM8As0gPEB4CA/hjQPfc8WfoBqEh/AQHsJDeONQuflfptgP3SA8hMcPgfAQXtNZbyX/w8r0nhSxIDyEBwgP4TWd663kW6f60zshPYSH8ADhIbymc5kpX2UltkI9CA/hAcJDeE3nAlM+CfUgPIQHCA/hjQNnmqKLfhAewgOEh/Cazs2u/Kapu081jAk0hPAQHiA8hNfo4wqm/NiUYqrqtZEewkN4gPAQXqO52koUK917oCKEh/AA4SG8pnO5KV5vCl5LR3gIDxAewhuH4wrxSHSE8BAeIDyENw78uu7HIabOJFpCeAgPEB7Ca3TlppX8H1M3q157EWpCeAgPEB7Ca/T1Y674pJXYBzUhPIQHCA/hNZ3rTPl2U+yCnhAewgOEh/CazpVW8lV1Se7cRHgIDxAewms86115hKmzGE0hPIQHCA/hNRor+Ssr3YdTxILwEB4gPIQ3DpWbp9YlDql6bY4rIDyEBwgP4TW7ctOUnzTFvugK4SE8QHgIr/H91ZVvcyo3ER7CA4SH8MZkpvfPpu5KtIXwEB4gPITX9CKWa63Es6thcFwB4SE8QHgIr+HSU15YKw+vem2OK9w14VWjJWL6E8JDeAgP5jk3ufLbrjgMfW16TLG7K39KP0J4CA/hwYK5czM/bcr7oLBNFt49TfED+hDCG6v7Clcfe9B2jf2oS9Su/Drt3GhudOW/m2LPuh+YbOOFt5spfkz/QXjjxG/rEvdt8Ee9vyt+TjuPRSHLsVamd0BlG5daubcrr6PvILwxWxKKv2rwkmbHlVfTzuPxx5spXlL12kvQ2cYILx5Cn0F4Y7ccZIp/bOQH3Y9FVvIJtPFY8Qsrzf0Dbpb/GPw/9BeEN3Z3FLryyw39oLdyxVraeOwqN79nigehtDtb7s8v0l8Q3jjyUx/kwc0rWOlubYpTad+xlN7nTfFHPkheV7idrB7EvVx5DX0F4Y0jl1uJlzRuSbN096dtx5qPm8JNnQkUd9s/BvPFrryBPoLwxvIvYlN+0AfZqOMJrnw1bTvWrHfFcGrdwduguN/b297eFV8ZbWfQTxDeWHK6lXhgUz7qahjbuvIU2nXsucYUr6l67aWo7pbZXfyVKy+gbyC8sf5r2Er+U92PbRvyUR/hyitoV3DlJaZ8FdJrtep+7OLKD40O69M3EN5Yc5aVOKTux4Le85ha11nlypNYsoHf4VeufK5pfF9XqEtOuuJ5rryc/oDwYIaBlYU7yzN1lpjyr1mygdvhHFM80xTLx+8IQmeRzVzCwDV7CA9+hytd8RcL+CjCvZ3zRXDH/NyVz51ad/CK8RJerDLlu2l/hAf/m2+bOrsswCWbVVbyKFdeRRvCH1reNOVrTJ2dx0h4L2BPG+HBHVw35op1Va+9bIEt2TzClRfRfrARXGYl3173Y/fmyy6fMNrDpN0RHtxRZZsr/84U876yreq1J+r+9N68igCbyPWuPMEUB9aD3KoaRtNmdYtN8UBX/oS2Rnhw55xvir81xdbzfN9uX1N+m/aCu1ydrHyhqbtnc87a5UpTPsaVPPCK8GAT+IUpjpyPlW1Vrz1ppdt25UdHf63TXnBX+a0rjrMS9zN1Vi7ss3bTq1z5fFf+lHZFeLDpnGeKI+fTwd2q115Ul+ia8rMzgxXtBLOxd50/csU/WOlOVb32ooW3jNm5hyuO5VgOwoO7xwWmPLoaxqr5UaDSvb8rvsnMDjYDV1jJb7riZWvWHrRqocjOFYe48tOuvJY2RHhw97nWSn7MlQfWiqVbepPf1FlkJbYxxQtnzgvmTbQJbCZuduV1VvJ0K/myqUGsNnWXzbeXF+p+LLUSa0z5BleeyzeB8GAzFLPUyleawqtee3KzL18OY1Gt3NEUD7ESxzOrgzngbFP8oyvu74q9quHcXlFW92OFKaas5Ktc+TPaB+HBZt/kz89biWeawjfXALB6GKtM8ShTDkZ/wfLbw5wud7ryk6Z8qSkeZJq+l6mzeMsdv+ns4DNHDV7ryv9iRofwYAsf4PWZi5qP8hIP8nL3z+1VvfZi63enrMTTTflvrjyH3xnmGetH59s+5Yq3mOLJVmL/ahgrNsMKx9ambtdm3nf84Oj/l1UOhAdzyNWjpZWTrcQbXfGIqdLdY2OXPKthbF8P8o9dcaSVeJ8rTx1VmvEXLCwE+f1qdObtc1bi7a440tR91NQg962Gsc0mCm7HepAHz3wL+Q5TftmVp4++MX5vhAfzcAC4ypWXuvJiK3GSlTjRSnzEFW91xetM8bbRv53oyu+Pbna5bFRhxltdsJCLXW4Y9eOrRn36ElN+30p89pY+byX+w5X/aIpiJU6Y+Q7i5NFqxiU+84TPtaP/LX5XhAcAALAAhVcrHstfMwAA0HAubE0p9jTFm115Nj8IAAA07RyzK080xVNmSm5Ld5Up/9QUH3TldfxAAACwwLnJFGf4zP2mlQ9y8ncrlCZMsbWVuL+X/PFIfDfzowEAwALiRldebiXeNNXv7OaKJXf2gvW2dYlXmOJ7zPgAAGCBiO5XpviAaXra1NnkJ2AOHt0AfhY/JgAAzFOucOWJXvKpPsjt7s7Fwdua4sGjmwau4ocFAIB5xGm14gU+W3cM+yBbrtzdlU9xxSkcYwAAgDnmAlOstRKdahiz/2aoKxZPDeJeVuKVrjwP8QEAwBbmSlN81hSHWInldT8mtsQzGfua4t2IDwAAtoToXHmqKx5b9drL5uAF7FhhJR7ryo+48jc0CAAAzDLrZ0SXr58a5Jot/QD2bas5F1np7mXK57ryazQOAADMBqa82JRrvcR9634snzdP3lfD2MqV+1iJo33meRkaDAAA7ion1aX7gLrkjq35mLofLevHMlO0TfF+n3lqg9taAABgY5cvf1QrnlYrd6p6B0y0FkKqXnsrUz7SZ17lvpKGBAAAv+NbUs7wkm+o+3HP1kJNNYztTfFaV35zZG8aFwAAbuFXpnivK/6s1YTU/VhiJQ/ykm+ymWeIWOYEABhvrnLFJ03xlKl1nR2qXrvVqNQlV9Wle4iV+CCNDQAwppQ8w5XPMXUrU2dxq6mpeu0JK7Gtqft4U3zHlb9lxgcA0Px9OlNc5IpSr5veywe5pDVO8UHu7MqXjw4V8gwRAEDzuMmVv3LlB2rFfathLG6Nc1xxsCne4spz6BwAAI3heleeYIon1f3YqUVmsvrYA5Zaicc415QBADSB75nitaaoMdztV3NOWok9TfF0L3nK6GwGHQcAYOFwiSvXmmK67ndWNK76cjNcSr2kXje9uyteYYpfO68xAADMZ2525XVe4kQr8SemXFENYwKbbdqh9dbUIPd35Xtd+UtmfAAA844rTXFKXfJv6pJIbhaWOrfxmf29D/vM/Zx0MgCAueUGV55mytfVpVtXvfYibDW7S517mLrPdeV/09kAAOaMK0z5FlMcWg1jKXbafNWci02xvyn/0ZUX0vEAALbkMYP4kpf8y7ofqzDSltnbm6gVy63EgV7yw668gttaAAA263m6M6zEc+oyfQ9XsHw5h3d0PtwU/835PQCAWRfdz0xxtKlzT2wzP+7nbE31p3e1mWvKTuGaMgCAu30d2C+95PtceX8fUH05D4taOktN3WlXvtGV59JpAQA2metMcbwpnmylu2vVayO7eX035yBXecl0xSd95jUGOjEAwJ1gijOt5N9aiWrsL3leUNJTtKx0d7DSPdyV3/aZ19YpbAEA+N/Ll78xxcAUdd2PrTDIwj64vpspXu7K00bio5MDAMwc7fqIlW5WvTYzuoYdXD/YS77DlT/jmjIAGGOucuUXXfn0ahjbYIeGVnPW/c52pniUKT80Or9H5weAceFGU/7QS77K+rFP3eeC53E4uD5pyj2t5NO8xKl8BAAwBlxtymPr0u3WJVdigvHb21viJe5hijeY4mLnGSIAaBY3j44ZfH1qEAebciXHDFjqXGSlex9XvtOVvxpVLfGxAMCCntG58ltW8oi6H8sZ6cltlzpXmOIJrvyoK6/hgwGABcr3TXGUK/ZlZCd3eozBS77ElN9imRMAFtYxg3inlbhf1WsvYTQnGye9klvVJdqmeP1omZOPCQDmK7915Wdc+SjT9M6mDoM42eS9vQkrsdzUPdgUH/WZS6m5rQUA5gs3mOInrnhe3Z/e1Qc5ychN7nZ8kItc+VgvebIrL0d8ADDHM7qzrcS/rB7GrozQZPOIT7GHKV7hiq/7zFtRfHwAsCWPGVzgyvdYiQfW/VjGqEw291LnYitxsCmPceV5fIQAsIU43tQ9whS7MBKTLV3Nub0pHuzKj3GMAQA2I2eZ8qWuWF312uzTkbmJKRbV/e7OXuJJpjjFeX8PAGaHm1x5kZdYZyX3mxrk0moYDLpknix1DmN7V77WlT9FfABwN7jEFJ+sSx7KyErm8zLnhPUjvcTbXHk215QBwCZeB/ZlUz5v9doDueCZLJilzu1M8WhXvN+V1/IhA8AfXL4s+QNTvrJW7FsNg306suCqORe5YndTPtkUZ/FRA8BtMcW1VvJYL3lg3Y8VjJxkQWf1MBZbiSkrefTMXXe8tg7Aebpc78qT69K9f11ya0ZK0rw9vpJ/bIr3cn4PYGy5xpVfM3Wfaepsy6hImr7UudSUj3blSaNryhgEAMbg3ktXnu4lX++DnGIkJGNU1NKZMHWnXPkSV57CNWUAjebXpninKR7iikWMgGQs44Nc5iX3d+WbTHERAwNAo1hvis9YicfVil2qIbIjpOWKlXV/ej8rceLo0DqvMQAs5OXLkr8wxXNNsWPdj8WMcoTctqilHyusxF+58gs8QwSw4Ljelee48pi639mr6rUZ1Ai58z2+qLzkK135rdFmN4MJwDzfp3Ple035wGoYSxnFCNmEVL32Eld0TdEbXVPGoAIwP2d1n/MST6z7sTMjFyF3VXrDaE0ptrcSD/MSH+cZIoD59mxPvMwUe5tighGLkNnZ25v0EjuY4vGmOJNlToA5vSXlclO8vR7kPnWJZezVEbKZsmbtgatc8ZrRM0TXMQABbDHRXewlT6r7cSAjESFbbqlzsSmnXTlw5blUcwJs3uvATPHFusRf1yVXMQIRMjdLndt5yUeb8iOjy2gZnABmlx+54tVWuvtVvTbP9hAy5+IruZeV+GtXfpcBCmBWuMKVbzfFtKnDsz2EzJslzl67Vfenl9SDXGOKo115gfPaOsBd4VpTfMkVf+7KbX2QDDCEzOf4IPf3kse58iLEB7DRz/Z810o8sxoGz/YQsqCkp1jsimeY4kRXXsaABnCHB8d/bIp/qvuxNyMHIQt3qXNR3e+udsXfueIbnN8D+D0uduXbrcSfm2I5IwYhDYips8wU+7vyn7zkbxjoAPKLpjzcSneXqtfm2R5Cmie+2NpK9zBXfMKVV3N+D8aMG115tpX4O1fuWg2DYwaENH6pcxgr6hKHu/JLrryKgRDGQHQ/N8UxptiTEYCQMUzdjz29xGtc+b3RoMDgCE3jUlceZ8oHVr32Vnz1hIz3MuciUxxqinWjxysZJKEJ/NaVnzfFc1cPYnu+dELIzBJnrz1hpbuDKR/iXFMGC/ySZ1OcZSVfaiW97sdivnBCyP8W3zAWuXIHK/EEL3key5ywwF4zWG8l3l33p60uuYwvmhCyUalL7mSKo0x5BjM+mMfc5MpLTPEpU/d+pg5HDAghd2mpc7EpuqYcuvI8BleYh9eBfdFLPscHuRNfLCFkNpY6V5rica781GiQYbCFueYMU/y9K/bjCyWEzGp8kBOuXOPKI13xffb3YK6uAzPFu6zEn60exEq+TELI5hOfYmldpldbiTe68nJua4Etdsyg5JdN8XArsV3dD/bqCCFbLqbpfU3x4dEzRMz4YLO8T+fKM13xrKrX5oJnQshcSi+2tRJPc+WnXfkbZnwwi8/2nO7KY+pB7lsNY4KvjRAy56l67UkrXTPFi1z5DQZruJtc5sqhl3hg3Y+t+cIIIfNPfMNYaiUO8JJrR2+NMXjDpvJVK93HmmJnvihCyLxO3Y8J68c2rjjMFJ9x5XUM4rARh8fPNcVLauW91qw9iGd7CCELbqlzqSse6cpTeIYI7kB053jJtXWfZ3sIIQ3ImkHs6sqjXHnaqBiBwR4uMsXH6pIP4gshhDRtqXOplTzESxZTnk815zgfM4gvmOJv6v70LlWvzcdBCGmo+EruWJfug035UQb/MaPkOa58iSn2MXV4jJUQ0vxUvfYiU+5cK46YOVScNyGERr9Pd5Ur3u8lzQc820MIGdP4IHfzkkeNxMf+XrPep7vUlSfUigdUw2BGRwghrVar5YpDTPEun9nfQxgLm+tc+RVTPKfuxy70bkIIuU3WrD1opZV4qiuOd+UViGPBcaMrf+gljjbF/vRoQgj5AzF1Jk3d1aZ4vpf8Pvt7C4bLTflOUxxW96e3ofqSEEI2WnyxrO533RVvNcWVHGOYx4fHS3zLSjzUlNtXQ57tIYSQu5RqGIumFAdaieNG93My45sfXGOKH5riSFMsoacSQsgspe7H9l7iiNEzRNcgnDm9DuxMV77ZSnfvqtdmRkcIIZtpqXONKV7pyv9BPlucq3xmn+4h1TB4jJUQQjZ31qw9aKkpuqb8F1degIg2OzeY8ste8sl1n2d7CCFki6YaxoQpt7GSh3mJE1y5HjFtlsPj55niRXXp3qsuuZieRwghc5y65JNMcSrPEM3aebrzTTEwdXi2hxBC5tWMr9eeqPvde5nydaNniJjx3bUZ3YVe8j9d+TAfMKMjhJD5K75hbFUrDjHlW9nf2ySuN8XnTPFMV9yTnkQIIQskdT9WecmHuuIkZnt3ys+t5GusxN5Vrz1J7yGEkAUWV0xY6e5uJZ41OjvGbS2/v3x5pSv/3RQH1f1YQY8hhJAGxNS5hyle58qzXHnDmMvuN6Y43kr3/lWvzS0phBDSyFnfIKe95HGuPG8Mrym7xpXfcuWLqmGsojcQQkiDM1PNOb2zKZ5sio+PlvXG4TqwM1zxBivRrvtc8EwIIeMjvmEsrkussZJHjs7vNfgx1ihWuvczxTa0PCGEjGnqfiw1xZQp5MprG1TYcrMpflQP8iGuWFX12hO0NiGEkFbVa09a6R7kyg+NniG6eeHO6PIHVvLIus+MjhBCyB2Jbxhbu/LJrjxpAV5Tdrop3lqXvDctSQghZKNS92ONl/i/NnNN2Y3zXHSXuOKDpnxw1WtvResRQgjZNOmVXF6XuK8pjpmRyvy7DsyVJ7vyqabu7qYO+3SEEELuWqpee8IU29aDDFOcPF/29kxxkSv+j5fczQfJ4XFCCCGzOOPrx2Ir+Tgv+T+uvHoO5He9K39tJd6xZu3BPMRKCCFk88ZnjjG8wZXf20L7ezPP9ig/bCUewb2XhBBCtliqXnuJlTjUFQNX/nozym69K7/gJZ5jit355QkhhMxJTNM7mOJwVx4/Org+m7I7xxSvdcV+Va/NY6yEEELmNj7ISSvdPVzxt6aYjWeIrvYS77eSUQ9yZTUMfmRCCCHzK9UwdrISb3DlL+/Cw7OXmeIrpjiEX5IQQsi8T92PybrE/UzxHlf+aiNmfNe68hRXvGBq3UHb8QsSQghZUDHFTqY4wmeeIbr+DqovzzLlP9aKA6phsE9HCCFkYabqtSddsdqUL3Dl6b97ybMp/9VLHlr3Y2t+KUIIIY3ImkEstZJ/5CXWufJzVuJRdYmd+GUI2TL5f2HZW4OcUPTeAAAAJXRFWHRkYXRlOmNyZWF0ZQAyMDIxLTAxLTI3VDIzOjU0OjA0KzAwOjAwNcRqkAAAACV0RVh0ZGF0ZTptb2RpZnkAMjAyMS0wMS0yN1QyMzo1NDowNCswMDowMESZ0iwAAAAASUVORK5CYII=;" parent="iw_QuW8YLIXmFO169EUj-1" vertex="1">
          <mxGeometry x="328.52" y="218.7" width="44" height="50.74" as="geometry" />
        </mxCell>
        <mxCell id="W_wi-10m-ZWDM_btILN0-3" value="namespace: poc" style="text;strokeColor=none;align=center;fillColor=none;html=1;verticalAlign=middle;whiteSpace=wrap;rounded=0;" parent="iw_QuW8YLIXmFO169EUj-1" vertex="1">
          <mxGeometry x="220.77" y="327.5" width="100" height="30" as="geometry" />
        </mxCell>
        <mxCell id="W_wi-10m-ZWDM_btILN0-4" value="aks01" style="text;strokeColor=none;align=center;fillColor=none;html=1;verticalAlign=middle;whiteSpace=wrap;rounded=0;fontSize=19;" parent="iw_QuW8YLIXmFO169EUj-1" vertex="1">
          <mxGeometry x="390" y="340" width="100" height="30" as="geometry" />
        </mxCell>
        <mxCell id="W_wi-10m-ZWDM_btILN0-5" value="ingress-to-app" style="aspect=fixed;sketch=0;html=1;dashed=0;whitespace=wrap;fillColor=#2875E2;strokeColor=#ffffff;points=[[0.005,0.63,0],[0.1,0.2,0],[0.9,0.2,0],[0.5,0,0],[0.995,0.63,0],[0.72,0.99,0],[0.5,1,0],[0.28,0.99,0]];shape=mxgraph.kubernetes.icon2;kubernetesLabel=1;prIcon=netpol;labelPosition=center;verticalLabelPosition=bottom;align=center;verticalAlign=top;" parent="iw_QuW8YLIXmFO169EUj-1" vertex="1">
          <mxGeometry x="372.52" y="269.44" width="36.53" height="35.07" as="geometry" />
        </mxCell>
        <mxCell id="W_wi-10m-ZWDM_btILN0-6" value="app-to-database" style="aspect=fixed;sketch=0;html=1;dashed=0;whitespace=wrap;fillColor=#2875E2;strokeColor=#ffffff;points=[[0.005,0.63,0],[0.1,0.2,0],[0.9,0.2,0],[0.5,0,0],[0.995,0.63,0],[0.72,0.99,0],[0.5,1,0],[0.28,0.99,0]];shape=mxgraph.kubernetes.icon2;kubernetesLabel=1;prIcon=netpol;labelPosition=center;verticalLabelPosition=bottom;align=center;verticalAlign=top;" parent="iw_QuW8YLIXmFO169EUj-1" vertex="1">
          <mxGeometry x="426.74" y="443.93" width="36.53" height="35.07" as="geometry" />
        </mxCell>
        <mxCell id="W_wi-10m-ZWDM_btILN0-7" value="deny-all" style="aspect=fixed;sketch=0;html=1;dashed=0;whitespace=wrap;fillColor=#2875E2;strokeColor=#ffffff;points=[[0.005,0.63,0],[0.1,0.2,0],[0.9,0.2,0],[0.5,0,0],[0.995,0.63,0],[0.72,0.99,0],[0.5,1,0],[0.28,0.99,0]];shape=mxgraph.kubernetes.icon2;kubernetesLabel=1;prIcon=netpol;labelPosition=center;verticalLabelPosition=bottom;align=center;verticalAlign=top;" parent="iw_QuW8YLIXmFO169EUj-1" vertex="1">
          <mxGeometry x="203.46999999999997" y="354.47" width="36.53" height="35.07" as="geometry" />
        </mxCell>
        <mxCell id="iw_QuW8YLIXmFO169EUj-68" value="" style="sketch=0;html=1;dashed=0;whitespace=wrap;fillColor=#2875E2;strokeColor=#ffffff;points=[[0.005,0.63,0],[0.1,0.2,0],[0.9,0.2,0],[0.5,0,0],[0.995,0.63,0],[0.72,0.99,0],[0.5,1,0],[0.28,0.99,0]];shape=mxgraph.kubernetes.icon;prIcon=pod" parent="iw_QuW8YLIXmFO169EUj-1" vertex="1">
          <mxGeometry x="340" y="437.891724137931" width="26.532258064516128" height="31.448275862068964" as="geometry" />
        </mxCell>
        <mxCell id="W_wi-10m-ZWDM_btILN0-8" style="edgeStyle=orthogonalEdgeStyle;rounded=0;orthogonalLoop=1;jettySize=auto;html=1;entryX=0.005;entryY=0.63;entryDx=0;entryDy=0;entryPerimeter=0;" parent="iw_QuW8YLIXmFO169EUj-1" source="iw_QuW8YLIXmFO169EUj-47" target="iw_QuW8YLIXmFO169EUj-68" edge="1">
          <mxGeometry relative="1" as="geometry" />
        </mxCell>
        <mxCell id="W_wi-10m-ZWDM_btILN0-9" value="" style="rounded=1;whiteSpace=wrap;html=1;" parent="iw_QuW8YLIXmFO169EUj-1" vertex="1">
          <mxGeometry x="-120" y="460" width="230" height="110" as="geometry" />
        </mxCell>
        <mxCell id="W_wi-10m-ZWDM_btILN0-10" value="Build and Push to ACR" style="image;sketch=0;aspect=fixed;html=1;points=[];align=center;fontSize=12;image=img/lib/mscae/Docker.svg;" parent="iw_QuW8YLIXmFO169EUj-1" vertex="1">
          <mxGeometry x="-40" y="476" width="50" height="41" as="geometry" />
        </mxCell>
        <mxCell id="W_wi-10m-ZWDM_btILN0-13" value="" style="image;sketch=0;aspect=fixed;html=1;points=[];align=center;fontSize=12;image=img/lib/mscae/Azure_Pipelines.svg;" parent="iw_QuW8YLIXmFO169EUj-1" vertex="1">
          <mxGeometry x="10" y="400" width="50" height="50" as="geometry" />
        </mxCell>
        <mxCell id="W_wi-10m-ZWDM_btILN0-14" value="pocacr2024" style="image;aspect=fixed;html=1;points=[];align=center;fontSize=12;image=img/lib/azure2/containers/Container_Registries.svg;labelPosition=center;verticalLabelPosition=top;verticalAlign=bottom;" parent="iw_QuW8YLIXmFO169EUj-1" vertex="1">
          <mxGeometry x="90" y="230" width="68" height="61" as="geometry" />
        </mxCell>
        <mxCell id="W_wi-10m-ZWDM_btILN0-16" style="edgeStyle=orthogonalEdgeStyle;rounded=0;orthogonalLoop=1;jettySize=auto;html=1;entryX=-0.008;entryY=0.468;entryDx=0;entryDy=0;entryPerimeter=0;" parent="iw_QuW8YLIXmFO169EUj-1" source="W_wi-10m-ZWDM_btILN0-9" target="W_wi-10m-ZWDM_btILN0-14" edge="1">
          <mxGeometry relative="1" as="geometry">
            <Array as="points">
              <mxPoint x="-20" y="259" />
            </Array>
          </mxGeometry>
        </mxCell>
      </root>
    </mxGraphModel>
  </diagram>
</mxfile>
